<svg width="300" height="84" viewBox="0 0 300 84" fill="none" xmlns="http://www.w3.org/2000/svg">
<path d="M79.8545 42.0728C79.8545 63.0194 62.8739 80 41.9273 80L41.9273 84C65.083 84 83.8545 65.2285 83.8545 42.0728L79.8545 42.0728ZM41.9273 80C20.9806 80 4 63.0194 4 42.0728L8.42763e-09 42.0728C3.54003e-09 65.2285 18.7715 84 41.9273 84L41.9273 80ZM4 42.0728C4 21.1261 20.9806 4.14551 41.9273 4.14551L41.9273 0.145508C18.7715 0.145508 1.33152e-08 18.917 8.42763e-09 42.0728L4 42.0728ZM41.9273 4.14551C62.8739 4.14551 79.8545 21.1261 79.8545 42.0728L83.8545 42.0728C83.8545 18.917 65.083 0.145508 41.9273 0.145508L41.9273 4.14551Z" fill="#384752"/>
<path d="M32.5185 47.0008C26.2305 55.7368 24.2842 64.8461 24.4339 71.8648L48.0279 71.6408L48.9201 64.0386L50.2584 59.5776L51.5967 64.4847L52.4889 71.6408L59.7277 71.6408C59.8774 64.6222 57.9311 55.5128 51.6431 46.7769C49.622 42.9689 50.1747 40.3572 51.6431 38.2649C53.1115 36.1726 56.5837 33.5609 53.2151 26.1689C54.832 26.5273 55.91 27.9609 55.91 27.9609L62.198 24.1529C61.7489 22.4356 60.1133 17.6698 54.338 17.209C48.7237 16.761 46.7774 13.849 46.2534 12.281C45.3551 16.089 46.9271 23.7945 48.7237 25.0489L48.6877 25.049C48.014 24.825 42.8488 26.3929 41.9506 29.3049C41.0523 26.3929 37.3094 25.4223 35.438 25.2729C37.2345 24.0185 38.8065 16.313 37.9083 12.505C37.3843 14.073 35.438 16.985 29.8237 17.433C24.0483 17.8938 22.4128 22.6596 21.9636 24.3769L28.2516 28.1849C28.2516 28.1849 29.3296 26.7513 30.9465 26.3929C27.5779 33.7849 31.0502 36.3966 32.5185 38.4889C33.9869 40.5812 34.5397 43.1929 32.5185 47.0008Z" fill="#384752" stroke="#384752"/>
<circle cx="38.856" cy="13.8167" r="0.307133" fill="#384752"/>
<circle cx="39.3169" cy="14.5845" r="0.460699" fill="#384752"/>
<circle cx="39.7774" cy="15.6597" r="0.614265" fill="#384752"/>
<circle cx="40.5457" cy="17.0418" r="0.767832" fill="#384752"/>
<circle cx="42.0811" cy="17.9629" r="0.767832" fill="#384752"/>
<circle cx="43.6162" cy="17.0418" r="0.767832" fill="#384752"/>
<circle cx="44.384" cy="15.6597" r="0.614265" fill="#384752"/>
<circle cx="44.8452" cy="14.5845" r="0.460699" fill="#384752"/>
<circle cx="45.3057" cy="13.8167" r="0.307133" fill="#384752"/>
<path d="M109.788 59.4396H111.255C111.757 59.4396 112.185 59.3257 112.54 59.098C112.895 58.8637 113.167 58.5389 113.354 58.1237C113.548 57.7019 113.645 57.213 113.645 56.6572C113.645 56.1014 113.548 55.6159 113.354 55.2007C113.167 54.7856 112.895 54.4641 112.54 54.2365C112.185 54.0021 111.757 53.8849 111.255 53.8849H109.788V59.4396ZM111.255 59.9016H108.523C108.496 59.8614 108.482 59.8079 108.482 59.7409C108.482 59.6672 108.506 59.6003 108.553 59.54L109.226 59.4597L109.226 53.8849H108.643C108.536 53.8849 108.482 53.838 108.482 53.7443C108.482 53.6974 108.499 53.617 108.533 53.5032L108.553 53.4229H111.255C111.857 53.4229 112.38 53.5534 112.822 53.8146C113.27 54.0757 113.619 54.4507 113.866 54.9396C114.114 55.4217 114.238 55.9943 114.238 56.6572C114.238 57.3268 114.114 57.9061 113.866 58.3949C113.619 58.8771 113.27 59.2487 112.822 59.5099C112.38 59.771 111.857 59.9016 111.255 59.9016Z" fill="#384752"/>
<path d="M118.224 59.9016H116.084C116.064 59.848 116.054 59.8012 116.054 59.761C116.054 59.7074 116.074 59.6438 116.115 59.5701L116.898 59.4898V55.3514H116.084C116.064 55.3045 116.054 55.2577 116.054 55.2108C116.054 55.1505 116.074 55.0869 116.115 55.0199L117.159 54.8291C117.273 54.8894 117.367 54.963 117.44 55.0501V59.4697H118.123C118.231 59.4697 118.284 59.5166 118.284 59.6103C118.284 59.6505 118.271 59.7208 118.244 59.8213L118.224 59.9016ZM117.471 53.5534C117.471 53.6807 117.43 53.7845 117.35 53.8648C117.27 53.9385 117.159 53.9753 117.019 53.9753C116.878 53.9753 116.767 53.9385 116.687 53.8648C116.607 53.7845 116.567 53.6807 116.567 53.5534C116.567 53.4262 116.607 53.3258 116.687 53.2521C116.767 53.1717 116.878 53.1316 117.019 53.1316C117.159 53.1316 117.27 53.1717 117.35 53.2521C117.43 53.3258 117.471 53.4262 117.471 53.5534Z" fill="#384752"/>
<path d="M120.215 59.3693L120.194 58.2744C120.241 58.2543 120.292 58.2443 120.345 58.2443C120.412 58.2443 120.476 58.2643 120.536 58.3045L120.747 59.3391C121.075 59.4864 121.453 59.5601 121.882 59.5601C122.297 59.5601 122.625 59.473 122.866 59.2989C123.107 59.1248 123.228 58.8905 123.228 58.5958C123.228 58.3547 123.134 58.1505 122.947 57.9831C122.766 57.8157 122.478 57.6751 122.083 57.5612C121.634 57.434 121.279 57.3034 121.018 57.1695C120.757 57.0289 120.569 56.8715 120.456 56.6974C120.348 56.5166 120.295 56.3023 120.295 56.0545C120.295 55.6594 120.446 55.3481 120.747 55.1204C121.055 54.8927 121.473 54.7789 122.002 54.7789C122.244 54.7789 122.491 54.8023 122.746 54.8492C123.007 54.8961 123.201 54.9563 123.328 55.03C123.402 55.117 123.466 55.2175 123.519 55.3313L123.539 56.3257C123.486 56.3458 123.436 56.3559 123.389 56.3559C123.322 56.3559 123.258 56.3358 123.198 56.2956L122.987 55.3715C122.699 55.2644 122.381 55.2108 122.033 55.2108C121.236 55.2108 120.837 55.492 120.837 56.0545C120.837 56.2085 120.874 56.3425 120.948 56.4563C121.028 56.5635 121.165 56.6639 121.36 56.7577C121.554 56.8514 121.822 56.9519 122.163 57.059C122.726 57.2264 123.134 57.434 123.389 57.6818C123.65 57.9228 123.78 58.2275 123.78 58.5958C123.78 59.0311 123.613 59.3759 123.278 59.6304C122.943 59.8782 122.478 60.0021 121.882 60.0021C121.601 60.0021 121.326 59.9719 121.058 59.9117C120.797 59.8514 120.579 59.771 120.405 59.6706C120.332 59.5835 120.268 59.4831 120.215 59.3693Z" fill="#384752"/>
<path d="M129.273 56.4664L129.042 55.4016C128.754 55.2878 128.422 55.2309 128.047 55.2309C127.699 55.2309 127.394 55.3246 127.133 55.5121C126.872 55.6929 126.668 55.944 126.521 56.2655C126.373 56.5869 126.3 56.9619 126.3 57.3905C126.3 58.0467 126.467 58.5657 126.802 58.9474C127.137 59.3291 127.585 59.5199 128.148 59.5199C128.382 59.5199 128.627 59.4931 128.881 59.4396C129.135 59.386 129.35 59.3123 129.524 59.2186C129.571 59.2722 129.608 59.3324 129.634 59.3994C129.661 59.4597 129.681 59.5233 129.695 59.5902C129.454 59.7175 129.192 59.8179 128.911 59.8916C128.63 59.9652 128.345 60.0021 128.057 60.0021C127.589 60.0021 127.18 59.8949 126.832 59.6806C126.484 59.4597 126.212 59.155 126.018 58.7666C125.824 58.3715 125.727 57.9128 125.727 57.3905C125.727 56.8681 125.824 56.4128 126.018 56.0244C126.212 55.6293 126.48 55.3246 126.822 55.1103C127.17 54.8894 127.579 54.7789 128.047 54.7789C128.275 54.7789 128.516 54.8057 128.77 54.8592C129.025 54.9061 129.236 54.9697 129.403 55.0501C129.477 55.1371 129.541 55.2376 129.594 55.3514L129.614 56.4965C129.561 56.5166 129.51 56.5266 129.464 56.5266C129.397 56.5266 129.333 56.5065 129.273 56.4664Z" fill="#384752"/>
<path d="M133.809 59.5601C134.157 59.5601 134.462 59.4697 134.723 59.2889C134.991 59.1081 135.195 58.8536 135.336 58.5255C135.483 58.1974 135.557 57.819 135.557 57.3905C135.557 56.9619 135.483 56.5835 135.336 56.2554C135.195 55.9273 134.991 55.6728 134.723 55.492C134.462 55.3112 134.157 55.2208 133.809 55.2208C133.461 55.2208 133.153 55.3112 132.885 55.492C132.624 55.6728 132.42 55.9273 132.272 56.2554C132.132 56.5835 132.061 56.9619 132.061 57.3905C132.061 57.819 132.132 58.1974 132.272 58.5255C132.42 58.8536 132.624 59.1081 132.885 59.2889C133.146 59.4697 133.454 59.5601 133.809 59.5601ZM133.809 60.0021C133.34 60.0021 132.932 59.8949 132.584 59.6806C132.242 59.4597 131.974 59.155 131.78 58.7666C131.586 58.3715 131.489 57.9128 131.489 57.3905C131.489 56.8681 131.586 56.4128 131.78 56.0244C131.974 55.6293 132.242 55.3246 132.584 55.1103C132.932 54.8894 133.34 54.7789 133.809 54.7789C134.278 54.7789 134.683 54.8894 135.025 55.1103C135.373 55.3246 135.644 55.6293 135.838 56.0244C136.032 56.4128 136.129 56.8681 136.129 57.3905C136.129 57.9128 136.032 58.3715 135.838 58.7666C135.644 59.155 135.373 59.4597 135.025 59.6806C134.683 59.8949 134.278 60.0021 133.809 60.0021Z" fill="#384752"/>
<path d="M140.06 59.9217L138.172 55.3112H137.589C137.482 55.3112 137.428 55.2644 137.428 55.1706C137.428 55.1304 137.442 55.0601 137.469 54.9597L137.489 54.8793H139.447C139.468 54.9329 139.478 54.9798 139.478 55.0199C139.478 55.0735 139.457 55.1371 139.417 55.2108L138.734 55.2911L140.301 59.1884L141.838 55.3112H141.255C141.148 55.3112 141.095 55.2644 141.095 55.1706C141.095 55.1304 141.108 55.0601 141.135 54.9597L141.155 54.8793H143.084C143.104 54.9329 143.114 54.9798 143.114 55.0199C143.114 55.0735 143.094 55.1371 143.053 55.2108L142.37 55.2911L140.482 59.9217C140.428 59.9351 140.358 59.9418 140.271 59.9418C140.184 59.9418 140.114 59.9351 140.06 59.9217Z" fill="#384752"/>
<path d="M148.333 57.28H144.958V57.3905C144.958 58.04 145.125 58.559 145.46 58.9474C145.802 59.3291 146.257 59.5199 146.826 59.5199C147.088 59.5199 147.355 59.4831 147.63 59.4094C147.911 59.3358 148.139 59.2521 148.313 59.1583C148.367 59.2119 148.407 59.2722 148.433 59.3391C148.46 59.3994 148.477 59.463 148.484 59.53C147.928 59.8447 147.345 60.0021 146.736 60.0021C146.267 60.0021 145.859 59.8949 145.511 59.6806C145.162 59.4597 144.891 59.155 144.697 58.7666C144.503 58.3715 144.406 57.9128 144.406 57.3905C144.406 56.8615 144.496 56.4027 144.677 56.0144C144.864 55.6193 145.129 55.3146 145.47 55.1003C145.812 54.886 146.214 54.7789 146.676 54.7789C147.908 54.7789 148.524 55.5121 148.524 56.9786C148.47 57.0925 148.407 57.1929 148.333 57.28ZM144.998 56.8481H147.992C147.992 55.7632 147.553 55.2208 146.676 55.2208C146.234 55.2208 145.862 55.3682 145.561 55.6628C145.266 55.9574 145.079 56.3525 144.998 56.8481Z" fill="#384752"/>
<path d="M152.763 59.9016H150.423C150.403 59.848 150.393 59.8012 150.393 59.761C150.393 59.7074 150.413 59.6438 150.453 59.5701L151.136 59.4898V55.3514H150.373C150.352 55.3045 150.342 55.2577 150.342 55.2108C150.342 55.1505 150.363 55.0869 150.403 55.0199L151.397 54.8291C151.511 54.8894 151.605 54.963 151.678 55.0501L151.548 56.2755C151.729 55.8336 151.98 55.482 152.301 55.2208C152.623 54.953 152.974 54.819 153.356 54.819C153.429 54.819 153.513 54.8257 153.607 54.8391C153.707 54.8458 153.798 54.8592 153.878 54.8793C153.952 54.9664 154.015 55.0668 154.069 55.1807L154.089 56.2755C154.042 56.2956 153.992 56.3056 153.938 56.3056C153.871 56.3056 153.808 56.2856 153.748 56.2454L153.527 55.2711C153.5 55.2644 153.473 55.261 153.446 55.261C153.426 55.261 153.406 55.261 153.386 55.261C153.098 55.261 152.823 55.3615 152.562 55.5623C152.301 55.7565 152.087 56.0144 151.919 56.3358C151.759 56.6505 151.678 56.982 151.678 57.3302V59.4697H152.663C152.77 59.4697 152.823 59.5166 152.823 59.6103C152.823 59.6505 152.81 59.7208 152.783 59.8213L152.763 59.9016Z" fill="#384752"/>
<path d="M163.223 59.9016H160.681C160.654 59.8614 160.641 59.8079 160.641 59.7409C160.641 59.6672 160.664 59.6003 160.711 59.54L161.686 59.4597V57.5914L159.657 53.8849H159.074C158.967 53.8849 158.913 53.838 158.913 53.7443C158.913 53.6974 158.93 53.617 158.964 53.5032L158.984 53.4229H160.973C160.999 53.463 161.013 53.5166 161.013 53.5836C161.013 53.6572 160.989 53.7242 160.942 53.7845L160.269 53.8648L162.007 57.1092L163.725 53.8849H163.142C163.035 53.8849 162.981 53.838 162.981 53.7443C162.981 53.6974 162.998 53.617 163.032 53.5032L163.052 53.4229H164.99C165.017 53.463 165.031 53.5166 165.031 53.5836C165.031 53.6572 165.007 53.7242 164.96 53.7845L164.287 53.8648L162.248 57.5914V59.4396H163.132C163.239 59.4396 163.293 59.4864 163.293 59.5802C163.293 59.6271 163.276 59.7074 163.243 59.8213L163.223 59.9016Z" fill="#384752"/>
<path d="M168.204 59.5601C168.552 59.5601 168.857 59.4697 169.118 59.2889C169.386 59.1081 169.59 58.8536 169.731 58.5255C169.878 58.1974 169.952 57.819 169.952 57.3905C169.952 56.9619 169.878 56.5835 169.731 56.2554C169.59 55.9273 169.386 55.6728 169.118 55.492C168.857 55.3112 168.552 55.2208 168.204 55.2208C167.856 55.2208 167.548 55.3112 167.28 55.492C167.019 55.6728 166.815 55.9273 166.667 56.2554C166.527 56.5835 166.456 56.9619 166.456 57.3905C166.456 57.819 166.527 58.1974 166.667 58.5255C166.815 58.8536 167.019 59.1081 167.28 59.2889C167.541 59.4697 167.849 59.5601 168.204 59.5601ZM168.204 60.0021C167.735 60.0021 167.327 59.8949 166.979 59.6806C166.637 59.4597 166.369 59.155 166.175 58.7666C165.981 58.3715 165.884 57.9128 165.884 57.3905C165.884 56.8681 165.981 56.4128 166.175 56.0244C166.369 55.6293 166.637 55.3246 166.979 55.1103C167.327 54.8894 167.735 54.7789 168.204 54.7789C168.673 54.7789 169.078 54.8894 169.419 55.1103C169.768 55.3246 170.039 55.6293 170.233 56.0244C170.427 56.4128 170.524 56.8681 170.524 57.3905C170.524 57.9128 170.427 58.3715 170.233 58.7666C170.039 59.155 169.768 59.4597 169.419 59.6806C169.078 59.8949 168.673 60.0021 168.204 60.0021Z" fill="#384752"/>
<path d="M177.624 59.761L176.63 59.9518C176.516 59.8916 176.422 59.8179 176.349 59.7309L176.419 58.7264C176.232 59.1349 175.974 59.4496 175.646 59.6706C175.324 59.8916 174.956 60.0021 174.541 60.0021C174.038 60.0021 173.65 59.8413 173.376 59.5199C173.101 59.1985 172.964 58.7398 172.964 58.1438V55.3514H172.2C172.18 55.3045 172.17 55.2577 172.17 55.2108C172.17 55.1505 172.19 55.0869 172.23 55.0199L173.225 54.8291C173.339 54.8894 173.432 54.963 173.506 55.0501V58.1438C173.506 58.5925 173.603 58.9407 173.797 59.1884C173.992 59.4362 174.263 59.5601 174.611 59.5601C174.919 59.5601 175.204 59.4697 175.465 59.2889C175.733 59.1014 175.947 58.857 176.108 58.5556C176.268 58.2476 176.349 57.9128 176.349 57.5512V55.3514H175.585C175.565 55.3045 175.555 55.2577 175.555 55.2108C175.555 55.1505 175.575 55.0869 175.615 55.0199L176.61 54.8291C176.724 54.8894 176.817 54.963 176.891 55.0501V59.4295H177.655C177.675 59.4764 177.685 59.5233 177.685 59.5701C177.685 59.6304 177.665 59.694 177.624 59.761Z" fill="#384752"/>
<path d="M181.838 59.9016H179.497C179.477 59.848 179.467 59.8012 179.467 59.761C179.467 59.7074 179.487 59.6438 179.527 59.5701L180.21 59.4898V55.3514H179.447C179.427 55.3045 179.417 55.2577 179.417 55.2108C179.417 55.1505 179.437 55.0869 179.477 55.0199L180.471 54.8291C180.585 54.8894 180.679 54.963 180.753 55.0501L180.622 56.2755C180.803 55.8336 181.054 55.482 181.376 55.2208C181.697 54.953 182.049 54.819 182.43 54.819C182.504 54.819 182.588 54.8257 182.681 54.8391C182.782 54.8458 182.872 54.8592 182.953 54.8793C183.026 54.9664 183.09 55.0668 183.143 55.1807L183.163 56.2755C183.117 56.2956 183.066 56.3056 183.013 56.3056C182.946 56.3056 182.882 56.2856 182.822 56.2454L182.601 55.2711C182.574 55.2644 182.547 55.261 182.521 55.261C182.501 55.261 182.48 55.261 182.46 55.261C182.172 55.261 181.898 55.3615 181.637 55.5623C181.376 55.7565 181.161 56.0144 180.994 56.3358C180.833 56.6505 180.753 56.982 180.753 57.3302V59.4697H181.737C181.844 59.4697 181.898 59.5166 181.898 59.6103C181.898 59.6505 181.884 59.7208 181.858 59.8213L181.838 59.9016Z" fill="#384752"/>
<path d="M194.436 59.9016H192.448C192.421 59.8614 192.407 59.8079 192.407 59.7409C192.407 59.6672 192.431 59.6003 192.478 59.54L193.131 59.4597L191.102 56.4161L189.876 57.8123V59.4396H190.459C190.566 59.4396 190.619 59.4864 190.619 59.5802C190.619 59.6271 190.603 59.7074 190.569 59.8213L190.549 59.9016H188.611C188.584 59.8614 188.57 59.8079 188.57 59.7409C188.57 59.6672 188.594 59.6003 188.641 59.54L189.314 59.4597V53.8849H188.731C188.624 53.8849 188.57 53.838 188.57 53.7443C188.57 53.6974 188.587 53.617 188.621 53.5032L188.641 53.4229H190.579C190.606 53.463 190.619 53.5166 190.619 53.5836C190.619 53.6572 190.596 53.7242 190.549 53.7845L189.876 53.8648V57.1494L192.699 53.8849H192.166C192.059 53.8849 192.006 53.838 192.006 53.7443C192.006 53.6974 192.022 53.617 192.056 53.5032L192.076 53.4229H194.015C194.041 53.463 194.055 53.5166 194.055 53.5836C194.055 53.6572 194.031 53.7242 193.984 53.7845L193.352 53.8648L191.453 56.0144L193.794 59.4396H194.346C194.453 59.4396 194.507 59.4864 194.507 59.5802C194.507 59.6271 194.49 59.7074 194.456 59.8213L194.436 59.9016Z" fill="#384752"/>
<path d="M197.92 57.5411L195.569 57.7621C195.536 57.6751 195.519 57.578 195.519 57.4708C195.519 57.3771 195.529 57.3001 195.549 57.2398L197.9 57.0188C197.933 57.1059 197.95 57.203 197.95 57.3101C197.95 57.4039 197.94 57.4809 197.92 57.5411Z" fill="#384752"/>
<path d="M202.558 59.9016H200.017C199.99 59.8614 199.976 59.8079 199.976 59.7409C199.976 59.6672 200 59.6003 200.047 59.54L200.72 59.4597V53.8849H200.137C200.03 53.8849 199.976 53.838 199.976 53.7443C199.976 53.6974 199.993 53.617 200.027 53.5032L200.047 53.4229H204.486C204.58 53.4965 204.661 53.5836 204.728 53.684L204.748 55.0099C204.707 55.0367 204.654 55.0501 204.587 55.0501C204.513 55.0501 204.446 55.0266 204.386 54.9798L204.135 53.8849H201.282V56.4262H203.191L203.281 55.8938C203.301 55.7733 203.358 55.713 203.452 55.713C203.479 55.713 203.532 55.7298 203.613 55.7632L203.673 55.7934V57.5612C203.633 57.588 203.579 57.6014 203.512 57.6014C203.438 57.6014 203.372 57.578 203.311 57.5311L203.191 56.8782H201.282V59.4396H202.468C202.575 59.4396 202.628 59.4864 202.628 59.5802C202.628 59.6271 202.611 59.7074 202.578 59.8213L202.558 59.9016Z" fill="#384752"/>
<path d="M210.836 59.761L209.842 59.9518C209.728 59.8916 209.634 59.8179 209.56 59.7309L209.611 59.0076C209.396 59.3224 209.132 59.5668 208.817 59.7409C208.509 59.915 208.167 60.0021 207.792 60.0021C207.33 60.0021 206.955 59.8715 206.667 59.6103C206.386 59.3492 206.246 59.011 206.246 58.5958C206.246 58.1204 206.433 57.7521 206.808 57.4909C207.19 57.2231 207.726 57.0891 208.415 57.0891C208.569 57.0891 208.747 57.0958 208.948 57.1092C209.148 57.1226 209.359 57.146 209.58 57.1795V56.7777C209.58 55.7465 209.115 55.2309 208.184 55.2309C207.943 55.2309 207.685 55.2744 207.411 55.3615C207.143 55.4418 206.895 55.559 206.667 55.713C206.621 55.6728 206.577 55.6159 206.537 55.5423C206.497 55.4619 206.477 55.3949 206.477 55.3414C206.738 55.1606 207.016 55.0233 207.31 54.9295C207.612 54.8291 207.903 54.7789 208.184 54.7789C209.463 54.7789 210.103 55.4452 210.103 56.7777V59.4295H210.866C210.886 59.4764 210.896 59.5233 210.896 59.5701C210.896 59.6304 210.876 59.694 210.836 59.761ZM209.58 58.0132V57.6114C209.366 57.5847 209.159 57.5646 208.958 57.5512C208.757 57.5311 208.576 57.521 208.415 57.521C207.886 57.521 207.484 57.6114 207.21 57.7922C206.935 57.9664 206.798 58.2275 206.798 58.5757C206.798 58.8704 206.892 59.1081 207.079 59.2889C207.274 59.4697 207.528 59.5601 207.843 59.5601C208.137 59.5601 208.415 59.4864 208.676 59.3391C208.944 59.1918 209.162 59.0009 209.329 58.7666C209.497 58.5322 209.58 58.2811 209.58 58.0132Z" fill="#384752"/>
<path d="M212.729 59.3693L212.709 58.2744C212.756 58.2543 212.806 58.2443 212.859 58.2443C212.926 58.2443 212.99 58.2643 213.05 58.3045L213.261 59.3391C213.589 59.4864 213.968 59.5601 214.396 59.5601C214.811 59.5601 215.139 59.473 215.381 59.2989C215.622 59.1248 215.742 58.8905 215.742 58.5958C215.742 58.3547 215.648 58.1505 215.461 57.9831C215.28 57.8157 214.992 57.6751 214.597 57.5612C214.148 57.434 213.793 57.3034 213.532 57.1695C213.271 57.0289 213.084 56.8715 212.97 56.6974C212.863 56.5166 212.809 56.3023 212.809 56.0545C212.809 55.6594 212.96 55.3481 213.261 55.1204C213.569 54.8927 213.988 54.7789 214.517 54.7789C214.758 54.7789 215.006 54.8023 215.26 54.8492C215.521 54.8961 215.715 54.9563 215.843 55.03C215.916 55.117 215.98 55.2175 216.033 55.3313L216.054 56.3257C216 56.3458 215.95 56.3559 215.903 56.3559C215.836 56.3559 215.772 56.3358 215.712 56.2956L215.501 55.3715C215.213 55.2644 214.895 55.2108 214.547 55.2108C213.75 55.2108 213.352 55.492 213.352 56.0545C213.352 56.2085 213.388 56.3425 213.462 56.4563C213.542 56.5635 213.68 56.6639 213.874 56.7577C214.068 56.8514 214.336 56.9519 214.677 57.059C215.24 57.2264 215.648 57.434 215.903 57.6818C216.164 57.9228 216.295 58.2275 216.295 58.5958C216.295 59.0311 216.127 59.3759 215.792 59.6304C215.458 59.8782 214.992 60.0021 214.396 60.0021C214.115 60.0021 213.84 59.9719 213.573 59.9117C213.311 59.8514 213.094 59.771 212.92 59.6706C212.846 59.5835 212.782 59.4831 212.729 59.3693Z" fill="#384752"/>
<path d="M223.577 59.9016H221.639C221.619 59.848 221.608 59.8012 221.608 59.761C221.608 59.7074 221.629 59.6438 221.669 59.5701L222.352 59.4898V56.6371C222.352 55.6929 221.953 55.2208 221.156 55.2208C220.842 55.2208 220.55 55.3146 220.283 55.5021C220.021 55.6829 219.811 55.9273 219.65 56.2353C219.489 56.5367 219.409 56.8681 219.409 57.2298V59.4697H219.991C220.098 59.4697 220.152 59.5166 220.152 59.6103C220.152 59.6505 220.139 59.7208 220.112 59.8213L220.092 59.9016H218.153C218.133 59.848 218.123 59.8012 218.123 59.761C218.123 59.7074 218.143 59.6438 218.183 59.5701L218.866 59.4898V53.6438H218.053C218.033 53.597 218.023 53.5501 218.023 53.5032C218.023 53.4429 218.043 53.3793 218.083 53.3124L219.127 53.1215C219.241 53.1818 219.335 53.2554 219.409 53.3425V55.9139C219.576 55.5992 219.811 55.3313 220.112 55.1103C220.413 54.8894 220.792 54.7789 221.247 54.7789C221.783 54.7789 222.191 54.9396 222.472 55.261C222.754 55.5757 222.894 56.0344 222.894 56.6371V59.4697H223.477C223.584 59.4697 223.638 59.5166 223.638 59.6103C223.638 59.6505 223.624 59.7208 223.597 59.8213L223.577 59.9016Z" fill="#384752"/>
<path d="M227.386 59.9016H225.247C225.227 59.848 225.217 59.8012 225.217 59.761C225.217 59.7074 225.237 59.6438 225.277 59.5701L226.06 59.4898V55.3514H225.247C225.227 55.3045 225.217 55.2577 225.217 55.2108C225.217 55.1505 225.237 55.0869 225.277 55.0199L226.322 54.8291C226.435 54.8894 226.529 54.963 226.603 55.0501V59.4697H227.286C227.393 59.4697 227.447 59.5166 227.447 59.6103C227.447 59.6505 227.433 59.7208 227.406 59.8213L227.386 59.9016ZM226.633 53.5534C226.633 53.6807 226.593 53.7845 226.512 53.8648C226.432 53.9385 226.322 53.9753 226.181 53.9753C226.04 53.9753 225.93 53.9385 225.849 53.8648C225.769 53.7845 225.729 53.6807 225.729 53.5534C225.729 53.4262 225.769 53.3258 225.849 53.2521C225.93 53.1717 226.04 53.1316 226.181 53.1316C226.322 53.1316 226.432 53.1717 226.512 53.2521C226.593 53.3258 226.633 53.4262 226.633 53.5534Z" fill="#384752"/>
<path d="M231.516 59.5601C231.865 59.5601 232.169 59.4697 232.43 59.2889C232.698 59.1081 232.903 58.8536 233.043 58.5255C233.19 58.1974 233.264 57.819 233.264 57.3905C233.264 56.9619 233.19 56.5835 233.043 56.2554C232.903 55.9273 232.698 55.6728 232.43 55.492C232.169 55.3112 231.865 55.2208 231.516 55.2208C231.168 55.2208 230.86 55.3112 230.592 55.492C230.331 55.6728 230.127 55.9273 229.98 56.2554C229.839 56.5835 229.769 56.9619 229.769 57.3905C229.769 57.819 229.839 58.1974 229.98 58.5255C230.127 58.8536 230.331 59.1081 230.592 59.2889C230.853 59.4697 231.161 59.5601 231.516 59.5601ZM231.516 60.0021C231.048 60.0021 230.639 59.8949 230.291 59.6806C229.949 59.4597 229.682 59.155 229.487 58.7666C229.293 58.3715 229.196 57.9128 229.196 57.3905C229.196 56.8681 229.293 56.4128 229.487 56.0244C229.682 55.6293 229.949 55.3246 230.291 55.1103C230.639 54.8894 231.048 54.7789 231.516 54.7789C231.985 54.7789 232.39 54.8894 232.732 55.1103C233.08 55.3246 233.351 55.6293 233.545 56.0244C233.74 56.4128 233.837 56.8681 233.837 57.3905C233.837 57.9128 233.74 58.3715 233.545 58.7666C233.351 59.155 233.08 59.4597 232.732 59.6806C232.39 59.8949 231.985 60.0021 231.516 60.0021Z" fill="#384752"/>
<path d="M241.138 59.9016H239.199C239.179 59.848 239.169 59.8012 239.169 59.761C239.169 59.7074 239.189 59.6438 239.229 59.5701L239.912 59.4898V56.6371C239.912 55.6929 239.514 55.2208 238.717 55.2208C238.402 55.2208 238.111 55.3146 237.843 55.5021C237.582 55.6829 237.371 55.9273 237.21 56.2353C237.049 56.5367 236.969 56.8681 236.969 57.2298V59.4697H237.552C237.659 59.4697 237.712 59.5166 237.712 59.6103C237.712 59.6505 237.699 59.7208 237.672 59.8213L237.652 59.9016H235.714C235.693 59.848 235.683 59.8012 235.683 59.761C235.683 59.7074 235.703 59.6438 235.744 59.5701L236.427 59.4898V55.3514H235.663C235.643 55.3045 235.633 55.2577 235.633 55.2108C235.633 55.1505 235.653 55.0869 235.693 55.0199L236.688 54.8291C236.802 54.8894 236.895 54.963 236.969 55.0501L236.899 56.0545C237.086 55.6461 237.344 55.3313 237.672 55.1103C238 54.8894 238.379 54.7789 238.807 54.7789C239.343 54.7789 239.751 54.9396 240.033 55.261C240.314 55.5757 240.455 56.0344 240.455 56.6371V59.4697H241.037C241.144 59.4697 241.198 59.5166 241.198 59.6103C241.198 59.6505 241.184 59.7208 241.158 59.8213L241.138 59.9016Z" fill="#384752"/>
<path d="M123.464 20.8909C123.941 20.3887 124.443 20.1376 124.971 20.1376C125.347 20.1376 125.661 20.2631 125.912 20.5143C126.188 20.7654 126.327 21.0416 126.327 21.3429C126.327 21.5187 126.264 21.6694 126.138 21.7949L115.365 32.1534L126.251 44.3576C126.603 44.7594 126.779 45.1235 126.779 45.45C126.779 45.8266 126.628 46.1531 126.327 46.4293C126.05 46.7055 125.686 46.8436 125.234 46.8436C124.657 46.8436 124.104 46.7181 123.577 46.467C123.05 46.2159 122.472 45.7262 121.844 44.9979L112.465 34.2628L111.787 34.9785V44.3953C111.787 45.2742 111.599 45.902 111.222 46.2786C110.845 46.6553 110.255 46.8436 109.452 46.8436C108.874 46.8436 108.435 46.693 108.133 46.3916C107.857 46.0903 107.719 45.6132 107.719 44.9603L107.719 22.0209C107.719 21.3429 107.845 20.8658 108.096 20.5896C108.347 20.2883 108.774 20.1376 109.376 20.1376C110.155 20.1376 110.745 20.3887 111.147 20.8909C111.574 21.368 111.787 22.0837 111.787 23.038V32.4548L123.464 20.8909Z" fill="#384752"/>
<path d="M126.6 38.7452C126.349 38.7452 126.16 38.6071 126.035 38.3309C125.909 38.0295 125.846 37.6654 125.846 37.2385C125.846 36.8116 125.909 36.46 126.035 36.1838C126.16 35.8825 126.349 35.7318 126.6 35.7318H137.787C138.013 35.7318 138.189 35.8825 138.314 36.1838C138.465 36.4852 138.54 36.8367 138.54 37.2385C138.54 37.6403 138.465 37.9918 138.314 38.2932C138.189 38.5945 138.013 38.7452 137.787 38.7452H126.6Z" fill="#384752"/>
<path d="M166.441 22.1339C166.692 21.3304 166.993 20.803 167.345 20.5519C167.697 20.2757 168.098 20.1376 168.55 20.1376C168.877 20.1376 169.14 20.238 169.341 20.4389C169.567 20.6398 169.68 20.8784 169.68 21.1546C169.68 21.4559 169.618 21.7698 169.492 22.0963L163.202 45.337C162.9 46.3414 162.122 46.8436 160.866 46.8436C160.364 46.8436 159.899 46.7306 159.473 46.5046C159.046 46.2786 158.769 45.9396 158.644 45.4876L154.689 27.3697H154.614L150.244 45.337C150.093 45.8643 149.805 46.2535 149.378 46.5046C148.951 46.7306 148.461 46.8436 147.909 46.8436C147.407 46.8436 146.942 46.7432 146.515 46.5423C146.088 46.3163 145.812 45.9647 145.686 45.4876L139.66 22.3599C139.559 22.0837 139.509 21.8075 139.509 21.5313C139.509 21.1295 139.635 20.803 139.886 20.5519C140.162 20.2757 140.564 20.1376 141.091 20.1376C142.372 20.1376 143.225 20.803 143.652 22.1339L148.323 42.5872H148.549L153.031 22.5106C153.232 21.6819 153.483 21.0793 153.785 20.7026C154.086 20.3259 154.513 20.1376 155.066 20.1376C156.045 20.1376 156.685 20.8909 156.987 22.3976L161.281 42.5872H161.507L166.441 22.1339Z" fill="#384752"/>
<path d="M182.556 43.2653C181.727 44.4957 180.773 45.3997 179.693 45.9773C178.639 46.5549 177.383 46.8436 175.927 46.8436C174.068 46.8436 172.65 46.3916 171.67 45.4876C170.716 44.5585 170.239 43.3155 170.239 41.7586C170.239 39.8501 170.942 38.2806 172.348 37.0502C173.78 35.7946 176.241 35.1668 179.731 35.1668H182.481V34.1121C182.481 32.4045 182.179 31.1992 181.577 30.4961C180.999 29.7929 180.045 29.4414 178.714 29.4414C177.458 29.4414 176.354 29.9687 175.399 31.0234C174.596 31.9023 173.83 32.3418 173.102 32.3418C172.675 32.3418 172.348 32.2288 172.122 32.0028C171.896 31.7516 171.783 31.4377 171.783 31.0611C171.783 30.584 171.959 30.1822 172.311 29.8557C172.662 29.5293 173.177 29.2279 173.855 28.9517C174.659 28.6253 175.563 28.3741 176.567 28.1984C177.597 28.0226 178.563 27.9347 179.467 27.9347C181.275 27.9347 182.682 28.1858 183.686 28.688C184.716 29.1903 185.431 29.9311 185.833 30.9104C186.235 31.8898 186.436 33.1704 186.436 34.7525V45.0733C186.436 45.676 186.335 46.128 186.134 46.4293C185.934 46.7055 185.544 46.8436 184.967 46.8436C184.138 46.8436 183.548 46.5674 183.196 46.015C182.845 45.4374 182.669 44.5334 182.669 43.3029L182.556 43.2653ZM180.334 36.7488C176.215 36.7488 174.156 38.243 174.156 41.2312C174.156 43.2904 175.249 44.3199 177.433 44.3199C178.111 44.3199 178.84 44.1567 179.618 43.8303C180.422 43.4787 181.1 42.9765 181.652 42.3236C182.23 41.6456 182.518 40.842 182.518 39.9129V36.7488H180.334Z" fill="#384752"/>
<path d="M204.399 29.5544C204.399 30.5337 203.91 31.0234 202.93 31.0234H201.687C199.804 31.0234 198.398 31.488 197.468 32.4171C196.564 33.3462 196.112 34.4511 196.112 35.7318V44.1693C196.112 45.2491 195.924 45.9647 195.547 46.3163C195.196 46.6679 194.581 46.8436 193.702 46.8436C193.124 46.8436 192.722 46.7055 192.496 46.4293C192.296 46.128 192.195 45.676 192.195 45.0733V29.5544C192.195 28.9517 192.321 28.5374 192.572 28.3114C192.823 28.0603 193.237 27.9347 193.815 27.9347C194.518 27.9347 195.058 28.2109 195.434 28.7634C195.836 29.2907 196.037 30.0943 196.037 31.1741V32.1158H196.112C196.841 30.9606 197.669 29.9813 198.599 29.1777C199.528 28.349 200.72 27.9347 202.177 27.9347H202.629C203.257 27.9347 203.696 28.0728 203.947 28.349C204.223 28.6253 204.374 29.027 204.399 29.5544Z" fill="#384752"/>
<path d="M214.523 27.9347C215.753 27.9347 216.896 28.1481 217.951 28.575V21.3053C217.951 20.2004 218.139 19.4093 218.516 18.9322C218.892 18.4551 219.508 18.2166 220.361 18.2166C220.939 18.2166 221.328 18.3672 221.529 18.6686C221.755 18.9448 221.868 19.3842 221.868 19.9869V45.0733C221.868 45.676 221.768 46.128 221.567 46.4293C221.366 46.7055 220.977 46.8436 220.399 46.8436C218.867 46.8436 218.101 45.5378 218.101 42.9263L217.988 42.8886C217.26 44.0939 216.431 45.0607 215.502 45.789C214.573 46.4921 213.405 46.8436 211.999 46.8436C210.166 46.8436 208.634 46.1656 207.404 44.8096C206.173 43.4285 205.558 41.2312 205.558 38.2178C205.558 34.7022 206.337 32.1158 207.893 30.4584C209.45 28.7759 211.66 27.9347 214.523 27.9347ZM209.626 37.9165C209.626 40.1765 209.978 41.8088 210.681 42.8132C211.409 43.8177 212.351 44.3199 213.506 44.3199C214.184 44.3199 214.874 44.0814 215.578 43.6043C216.281 43.102 216.858 42.4868 217.31 41.7586C217.762 41.0052 217.988 40.2644 217.988 39.5362V31.6638C217.988 31.1113 217.674 30.6091 217.047 30.1571C216.419 29.6799 215.578 29.4414 214.523 29.4414C212.916 29.4414 211.698 30.0692 210.869 31.3247C210.041 32.5552 209.626 34.7525 209.626 37.9165Z" fill="#384752"/>
<path d="M240.117 29.5544C240.117 30.5337 239.627 31.0234 238.648 31.0234H237.405C235.522 31.0234 234.115 31.488 233.186 32.4171C232.282 33.3462 231.83 34.4511 231.83 35.7318V44.1693C231.83 45.2491 231.642 45.9647 231.265 46.3163C230.914 46.6679 230.298 46.8436 229.419 46.8436C228.842 46.8436 228.44 46.7055 228.214 46.4293C228.013 46.128 227.913 45.676 227.913 45.0733V29.5544C227.913 28.9517 228.038 28.5374 228.289 28.3114C228.541 28.0603 228.955 27.9347 229.532 27.9347C230.236 27.9347 230.775 28.2109 231.152 28.7634C231.554 29.2907 231.755 30.0943 231.755 31.1741V32.1158H231.83C232.558 30.9606 233.387 29.9813 234.316 29.1777C235.245 28.349 236.438 27.9347 237.895 27.9347H238.347C238.974 27.9347 239.414 28.0728 239.665 28.349C239.941 28.6253 240.092 29.027 240.117 29.5544Z" fill="#384752"/>
<path d="M249.902 46.8436C247.164 46.8436 245.042 46.0526 243.536 44.4706C242.029 42.8886 241.276 40.5281 241.276 37.3892C241.276 34.2 242.042 31.827 243.573 30.2701C245.105 28.7132 247.215 27.9347 249.902 27.9347C252.588 27.9347 254.698 28.7132 256.23 30.2701C257.761 31.827 258.527 34.2 258.527 37.3892C258.527 40.5281 257.774 42.8886 256.267 44.4706C254.761 46.0526 252.639 46.8436 249.902 46.8436ZM249.902 45.337C251.383 45.337 252.513 44.7719 253.292 43.6419C254.07 42.4868 254.459 40.4025 254.459 37.3892C254.459 34.426 254.058 32.3669 253.254 31.2117C252.45 30.0315 251.333 29.4414 249.902 29.4414C248.495 29.4414 247.378 30.0315 246.549 31.2117C245.746 32.392 245.344 34.4511 245.344 37.3892C245.344 40.3774 245.733 42.4491 246.512 43.6043C247.29 44.7594 248.42 45.337 249.902 45.337Z" fill="#384752"/>
<path d="M267.402 31.4001C268.683 29.0898 270.642 27.9347 273.278 27.9347C275.212 27.9347 276.769 28.5499 277.949 29.7804C279.129 31.0109 279.72 33.2332 279.72 36.4475C279.72 39.8124 278.929 42.3864 277.347 44.1693C275.765 45.9522 273.567 46.8436 270.755 46.8436C269.022 46.8436 267.402 46.5549 265.896 45.9773C265.117 45.7011 264.502 45.3244 264.05 44.8473C263.623 44.3702 263.41 43.6545 263.41 42.7002V19.9869C263.41 19.3842 263.51 18.9448 263.711 18.6686C263.937 18.3672 264.339 18.2166 264.916 18.2166C265.77 18.2166 266.385 18.4551 266.762 18.9322C267.139 19.4093 267.327 20.2004 267.327 21.3053V31.4001H267.402ZM267.289 43.3406C267.289 43.893 267.591 44.3702 268.193 44.7719C268.821 45.1486 269.675 45.337 270.755 45.337C274.019 45.337 275.652 42.4742 275.652 36.7488C275.652 34.313 275.313 32.6557 274.635 31.7768C273.956 30.8979 273.002 30.4584 271.772 30.4584C271.144 30.4584 270.479 30.6718 269.775 31.0987C269.072 31.5005 268.482 32.0279 268.005 32.6808C267.528 33.3337 267.289 34.0117 267.289 34.7148V43.3406Z" fill="#384752"/>
<path d="M298.116 42.0976C298.368 41.8213 298.682 41.6832 299.058 41.6832C299.284 41.6832 299.485 41.7586 299.661 41.9092C299.837 42.0599 299.925 42.2482 299.925 42.4742C299.925 42.9263 299.761 43.3531 299.435 43.7549C297.777 45.8141 295.467 46.8436 292.504 46.8436C289.566 46.8436 287.344 46.0526 285.837 44.4706C284.355 42.8635 283.615 40.6537 283.615 37.8412C283.615 34.6269 284.368 32.1785 285.875 30.4961C287.381 28.7885 289.566 27.9347 292.429 27.9347C294.714 27.9347 296.547 28.5876 297.928 29.8934C299.309 31.1992 300 33.07 300 35.5058C300 36.7363 299.284 37.3515 297.853 37.3515H287.72C287.695 37.5524 287.683 37.8286 287.683 38.1802C287.683 40.3398 288.11 42.0473 288.963 43.3029C289.817 44.5585 291.135 45.1863 292.918 45.1863C294.124 45.1863 295.078 44.9352 295.781 44.4329C296.484 43.9307 297.024 43.4536 297.401 43.0016C297.777 42.5245 298.016 42.2231 298.116 42.0976ZM292.203 29.4414C290.997 29.4414 290.005 29.9562 289.227 30.9857C288.449 32.0153 287.984 33.6099 287.833 35.7695H294.877C295.329 35.7695 295.656 35.6941 295.856 35.5435C296.057 35.3677 296.158 35.0789 296.158 34.6771C296.158 32.9947 295.756 31.7014 294.952 30.7974C294.174 29.8934 293.257 29.4414 292.203 29.4414Z" fill="#384752"/>
<path d="M99.4326 2.14551L99.4326 82" stroke="#384752" stroke-width="3" stroke-linecap="round"/>
</svg>
