<svg width="30" height="29" viewBox="0 0 30 29" fill="none" xmlns="http://www.w3.org/2000/svg">
<path d="M1 1H4.68421L7.63158 22H23.1053M23.1053 22C21.4775 22 20.1579 23.3431 20.1579 25C20.1579 26.6569 21.4775 28 23.1053 28C24.7331 28 26.0526 26.6569 26.0526 25C26.0526 23.3431 24.7331 22 23.1053 22ZM6.99999 17.5H24.5789L29 4H5.10525M14.2632 25C14.2632 26.6569 12.9436 28 11.3158 28C9.68801 28 8.36842 26.6569 8.36842 25C8.36842 23.3431 9.68801 22 11.3158 22C12.9436 22 14.2632 23.3431 14.2632 25Z" stroke="#384752" stroke-width="1.5" stroke-linecap="round" stroke-linejoin="round"/>
</svg>
