<svg width="195" height="56" viewBox="0 0 195 56" fill="none" xmlns="http://www.w3.org/2000/svg">
<path d="M51.7178 27.8589C51.7178 41.0358 41.0358 51.7178 27.8589 51.7178L27.8589 55.7178C43.245 55.7178 55.7178 43.245 55.7178 27.8589L51.7178 27.8589ZM27.8589 51.7178C14.682 51.7178 4 41.0358 4 27.8589L5.45816e-09 27.8589C2.21056e-09 43.245 12.4729 55.7178 27.8589 55.7178L27.8589 51.7178ZM4 27.8589C4 14.682 14.682 4.00001 27.8589 4.00001L27.8589 7.63485e-06C12.4729 7.63161e-06 8.70577e-09 12.4729 5.45816e-09 27.8589L4 27.8589ZM27.8589 4.00001C41.0358 4.00001 51.7178 14.682 51.7178 27.8589L55.7178 27.8589C55.7178 12.4729 43.245 7.6381e-06 27.8589 7.63485e-06L27.8589 4.00001Z" fill="#384752"/>
<path d="M21.7653 31.0506C17.6929 36.7084 16.4324 42.6081 16.5293 47.1537L31.81 47.0086L32.3878 42.0851L33.2546 39.1959L34.1213 42.374L34.6991 47.0086L39.3874 47.0086C39.4843 42.463 38.2238 36.5634 34.1514 30.9055C32.8424 28.4393 33.2004 26.7478 34.1514 25.3927C35.1024 24.0376 37.3512 22.3462 35.1695 17.5588C36.2167 17.7909 36.9148 18.7193 36.9148 18.7193L40.9873 16.2531C40.6964 15.1409 39.6371 12.0543 35.8967 11.7558C32.2606 11.4657 31.0001 9.57975 30.6607 8.56424C30.0789 11.0305 31.097 16.021 32.2606 16.8334L32.2373 16.8334C31.801 16.6884 28.4558 17.7038 27.874 19.5898C27.2922 17.7038 24.8681 17.0752 23.6561 16.9785C24.8197 16.1661 25.8378 11.1756 25.256 8.70931C24.9166 9.72482 23.6561 11.6108 20.02 11.9009C16.2796 12.1994 15.2203 15.2859 14.9294 16.3982L19.0019 18.8644C19.0019 18.8644 19.7 17.9359 20.7472 17.7038C18.5656 22.4913 20.8143 24.1827 21.7653 25.5378C22.7163 26.8929 23.0743 28.5843 21.7653 31.0506Z" fill="#384752" stroke="#384752"/>
<circle cx="25.8698" cy="9.55884" r="0.198915" fill="#384752"/>
<circle cx="26.1682" cy="10.0561" r="0.298372" fill="#384752"/>
<circle cx="26.4664" cy="10.7523" r="0.397829" fill="#384752"/>
<circle cx="26.9641" cy="11.6474" r="0.497287" fill="#384752"/>
<circle cx="27.9585" cy="12.2442" r="0.497287" fill="#384752"/>
<circle cx="28.9529" cy="11.6474" r="0.497287" fill="#384752"/>
<circle cx="29.4501" cy="10.7523" r="0.397829" fill="#384752"/>
<circle cx="29.7488" cy="10.0561" r="0.298372" fill="#384752"/>
<circle cx="30.0471" cy="9.55884" r="0.198915" fill="#384752"/>
<path d="M71.8091 39.1067H72.7589C73.0842 39.1067 73.3617 39.033 73.5916 38.8855C73.8214 38.7337 73.9971 38.5234 74.1185 38.2545C74.2443 37.9813 74.3072 37.6647 74.3072 37.3047C74.3072 36.9447 74.2443 36.6303 74.1185 36.3614C73.9971 36.0925 73.8214 35.8844 73.5916 35.7369C73.3617 35.5851 73.0842 35.5092 72.7589 35.5092H71.8091V39.1067ZM72.7589 39.406H70.9894C70.9721 39.3799 70.9634 39.3452 70.9634 39.3019C70.9634 39.2542 70.9786 39.2108 71.0089 39.1718L71.4448 39.1197L71.4448 35.5092H71.0675C70.9981 35.5092 70.9634 35.4789 70.9634 35.4182C70.9634 35.3878 70.9742 35.3358 70.9959 35.262L71.0089 35.21H72.7589C73.1492 35.21 73.4875 35.2945 73.7737 35.4637C74.0643 35.6328 74.2898 35.8757 74.4503 36.1923C74.6108 36.5046 74.691 36.8754 74.691 37.3047C74.691 37.7384 74.6108 38.1136 74.4503 38.4301C74.2898 38.7424 74.0643 38.9831 73.7737 39.1522C73.4875 39.3214 73.1492 39.406 72.7589 39.406Z" fill="#384752"/>
<path d="M77.2725 39.406H75.8869C75.8739 39.3713 75.8673 39.3409 75.8673 39.3149C75.8673 39.2802 75.8804 39.239 75.9064 39.1913L76.4138 39.1392V36.459H75.8869C75.8739 36.4287 75.8673 36.3983 75.8673 36.3679C75.8673 36.3289 75.8804 36.2877 75.9064 36.2443L76.5829 36.1207C76.6567 36.1598 76.7174 36.2075 76.7651 36.2639V39.1262H77.2075C77.2768 39.1262 77.3115 39.1566 77.3115 39.2173C77.3115 39.2433 77.3029 39.2889 77.2855 39.3539L77.2725 39.406ZM76.7846 35.2945C76.7846 35.377 76.7586 35.4442 76.7065 35.4962C76.6545 35.5439 76.5829 35.5678 76.4919 35.5678C76.4008 35.5678 76.3292 35.5439 76.2772 35.4962C76.2251 35.4442 76.1991 35.377 76.1991 35.2945C76.1991 35.2121 76.2251 35.1471 76.2772 35.0994C76.3292 35.0473 76.4008 35.0213 76.4919 35.0213C76.5829 35.0213 76.6545 35.0473 76.7065 35.0994C76.7586 35.1471 76.7846 35.2121 76.7846 35.2945Z" fill="#384752"/>
<path d="M78.5617 39.0612L78.5487 38.3521C78.5791 38.3391 78.6116 38.3326 78.6463 38.3326C78.6897 38.3326 78.7309 38.3456 78.7699 38.3716L78.9065 39.0417C79.119 39.1371 79.3641 39.1848 79.6416 39.1848C79.9105 39.1848 80.123 39.1284 80.2792 39.0156C80.4353 38.9029 80.5134 38.7511 80.5134 38.5603C80.5134 38.4041 80.4526 38.2718 80.3312 38.1634C80.2141 38.055 80.0276 37.9639 79.7717 37.8902C79.4812 37.8078 79.2513 37.7232 79.0822 37.6365C78.913 37.5454 78.7916 37.4435 78.7179 37.3307C78.6485 37.2136 78.6138 37.0749 78.6138 36.9144C78.6138 36.6585 78.7114 36.4568 78.9065 36.3094C79.106 36.1619 79.3771 36.0882 79.7197 36.0882C79.8758 36.0882 80.0363 36.1034 80.2011 36.1337C80.3702 36.1641 80.496 36.2031 80.5784 36.2508C80.6261 36.3072 80.6673 36.3723 80.702 36.446L80.715 37.09C80.6803 37.103 80.6478 37.1096 80.6174 37.1096C80.5741 37.1096 80.5329 37.0965 80.4938 37.0705L80.3572 36.472C80.1707 36.4026 79.9647 36.3679 79.7392 36.3679C79.2231 36.3679 78.9651 36.5501 78.9651 36.9144C78.9651 37.0141 78.9889 37.1009 79.0366 37.1746C79.0887 37.244 79.1776 37.3091 79.3034 37.3698C79.4291 37.4305 79.6026 37.4955 79.8238 37.5649C80.1881 37.6734 80.4526 37.8078 80.6174 37.9683C80.7866 38.1244 80.8712 38.3217 80.8712 38.5603C80.8712 38.8422 80.7627 39.0655 80.5459 39.2303C80.329 39.3908 80.0276 39.471 79.6416 39.471C79.4595 39.471 79.2817 39.4515 79.1082 39.4125C78.9391 39.3734 78.7981 39.3214 78.6853 39.2563C78.6376 39.2 78.5964 39.1349 78.5617 39.0612Z" fill="#384752"/>
<path d="M84.4283 37.1811L84.2787 36.4915C84.0922 36.4178 83.8775 36.381 83.6346 36.381C83.4091 36.381 83.2118 36.4417 83.0426 36.5631C82.8735 36.6802 82.7412 36.8428 82.6458 37.051C82.5504 37.2592 82.5027 37.502 82.5027 37.7796C82.5027 38.2046 82.6111 38.5407 82.828 38.7879C83.0448 39.0352 83.3354 39.1588 83.6997 39.1588C83.8515 39.1588 84.0098 39.1414 84.1746 39.1067C84.3394 39.072 84.4782 39.0243 84.5909 38.9636C84.6213 38.9983 84.6451 39.0373 84.6625 39.0807C84.6798 39.1197 84.6928 39.1609 84.7015 39.2043C84.5454 39.2867 84.3762 39.3517 84.1941 39.3995C84.0119 39.4472 83.8276 39.471 83.6411 39.471C83.3375 39.471 83.073 39.4016 82.8475 39.2628C82.622 39.1197 82.4463 38.9224 82.3205 38.6708C82.1948 38.415 82.1319 38.1179 82.1319 37.7796C82.1319 37.4413 82.1948 37.1464 82.3205 36.8949C82.4463 36.639 82.6198 36.4417 82.841 36.3029C83.0665 36.1598 83.331 36.0882 83.6346 36.0882C83.7821 36.0882 83.9382 36.1056 84.103 36.1403C84.2678 36.1706 84.4044 36.2118 84.5129 36.2639C84.5606 36.3202 84.6018 36.3853 84.6365 36.459L84.6495 37.2006C84.6148 37.2136 84.5822 37.2201 84.5519 37.2201C84.5085 37.2201 84.4673 37.2071 84.4283 37.1811Z" fill="#384752"/>
<path d="M87.3663 39.1848C87.5919 39.1848 87.7892 39.1262 87.9583 39.0091C88.1318 38.892 88.2641 38.7272 88.3551 38.5147C88.4506 38.3022 88.4983 38.0572 88.4983 37.7796C88.4983 37.502 88.4506 37.257 88.3551 37.0445C88.2641 36.832 88.1318 36.6672 87.9583 36.5501C87.7892 36.433 87.5919 36.3744 87.3663 36.3744C87.1408 36.3744 86.9413 36.433 86.7678 36.5501C86.5987 36.6672 86.4664 36.832 86.371 37.0445C86.2799 37.257 86.2344 37.502 86.2344 37.7796C86.2344 38.0572 86.2799 38.3022 86.371 38.5147C86.4664 38.7272 86.5987 38.892 86.7678 39.0091C86.937 39.1262 87.1365 39.1848 87.3663 39.1848ZM87.3663 39.471C87.0627 39.471 86.7982 39.4016 86.5727 39.2628C86.3515 39.1197 86.178 38.9224 86.0522 38.6708C85.9265 38.415 85.8636 38.1179 85.8636 37.7796C85.8636 37.4413 85.9265 37.1464 86.0522 36.8949C86.178 36.639 86.3515 36.4417 86.5727 36.3029C86.7982 36.1598 87.0627 36.0882 87.3663 36.0882C87.6699 36.0882 87.9323 36.1598 88.1535 36.3029C88.379 36.4417 88.5546 36.639 88.6804 36.8949C88.8062 37.1464 88.8691 37.4413 88.8691 37.7796C88.8691 38.1179 88.8062 38.415 88.6804 38.6708C88.5546 38.9224 88.379 39.1197 88.1535 39.2628C87.9323 39.4016 87.6699 39.471 87.3663 39.471Z" fill="#384752"/>
<path d="M91.4148 39.419L90.1917 36.433H89.8144C89.745 36.433 89.7104 36.4026 89.7104 36.3419C89.7104 36.3159 89.719 36.2704 89.7364 36.2053L89.7494 36.1533H91.0179C91.0309 36.188 91.0375 36.2183 91.0375 36.2443C91.0375 36.279 91.0244 36.3202 90.9984 36.3679L90.5561 36.42L91.5709 38.9441L92.5662 36.433H92.1889C92.1195 36.433 92.0848 36.4026 92.0848 36.3419C92.0848 36.3159 92.0935 36.2704 92.1108 36.2053L92.1239 36.1533H93.3729C93.3859 36.188 93.3924 36.2183 93.3924 36.2443C93.3924 36.279 93.3794 36.3202 93.3534 36.3679L92.911 36.42L91.688 39.419C91.6533 39.4276 91.6078 39.432 91.5514 39.432C91.495 39.432 91.4495 39.4276 91.4148 39.419Z" fill="#384752"/>
<path d="M96.7727 37.708H94.5869V37.7796C94.5869 38.2003 94.6953 38.5364 94.9122 38.7879C95.1334 39.0352 95.4283 39.1588 95.7969 39.1588C95.966 39.1588 96.1395 39.1349 96.3173 39.0872C96.4995 39.0395 96.6469 38.9853 96.7597 38.9246C96.7944 38.9593 96.8204 38.9983 96.8378 39.0417C96.8551 39.0807 96.866 39.1219 96.8703 39.1653C96.5103 39.3691 96.133 39.471 95.7384 39.471C95.4348 39.471 95.1702 39.4016 94.9447 39.2628C94.7192 39.1197 94.5435 38.9224 94.4178 38.6708C94.292 38.415 94.2291 38.1179 94.2291 37.7796C94.2291 37.437 94.2877 37.1399 94.4048 36.8884C94.5262 36.6325 94.6975 36.4352 94.9187 36.2964C95.1399 36.1576 95.4001 36.0882 95.6993 36.0882C96.4973 36.0882 96.8963 36.5631 96.8963 37.5129C96.8616 37.5866 96.8204 37.6517 96.7727 37.708ZM94.6129 37.4283H96.5515C96.5515 36.7257 96.2675 36.3744 95.6993 36.3744C95.4131 36.3744 95.1724 36.4699 94.9772 36.6607C94.7864 36.8515 94.665 37.1074 94.6129 37.4283Z" fill="#384752"/>
<path d="M99.6419 39.406H98.1261C98.1131 39.3713 98.1066 39.3409 98.1066 39.3149C98.1066 39.2802 98.1196 39.239 98.1457 39.1913L98.588 39.1392V36.459H98.0936C98.0806 36.4287 98.0741 36.3983 98.0741 36.3679C98.0741 36.3289 98.0871 36.2877 98.1131 36.2443L98.7572 36.1207C98.8309 36.1598 98.8916 36.2075 98.9393 36.2639L98.8547 37.0575C98.9718 36.7713 99.1345 36.5436 99.3426 36.3744C99.5508 36.201 99.7785 36.1142 100.026 36.1142C100.073 36.1142 100.128 36.1186 100.188 36.1272C100.253 36.1316 100.312 36.1403 100.364 36.1533C100.412 36.2096 100.453 36.2747 100.488 36.3484L100.501 37.0575C100.47 37.0705 100.438 37.077 100.403 37.077C100.36 37.077 100.318 37.064 100.279 37.038L100.136 36.407C100.119 36.4026 100.102 36.4005 100.084 36.4005C100.071 36.4005 100.058 36.4005 100.045 36.4005C99.8587 36.4005 99.6809 36.4655 99.5118 36.5956C99.3426 36.7214 99.2039 36.8884 99.0954 37.0965C98.9914 37.3004 98.9393 37.5151 98.9393 37.7406V39.1262H99.5768C99.6462 39.1262 99.6809 39.1566 99.6809 39.2173C99.6809 39.2433 99.6723 39.2889 99.6549 39.3539L99.6419 39.406Z" fill="#384752"/>
<path d="M106.416 39.406H104.77C104.753 39.3799 104.744 39.3452 104.744 39.3019C104.744 39.2542 104.759 39.2108 104.79 39.1718L105.421 39.1197V37.9097L104.106 35.5092H103.729C103.66 35.5092 103.625 35.4789 103.625 35.4182C103.625 35.3878 103.636 35.3358 103.658 35.262L103.671 35.21H104.959C104.976 35.236 104.985 35.2707 104.985 35.3141C104.985 35.3618 104.97 35.4051 104.939 35.4442L104.503 35.4962L105.629 37.5975L106.741 35.5092H106.364C106.294 35.5092 106.26 35.4789 106.26 35.4182C106.26 35.3878 106.271 35.3358 106.292 35.262L106.305 35.21H107.561C107.578 35.236 107.587 35.2707 107.587 35.3141C107.587 35.3618 107.572 35.4051 107.541 35.4442L107.105 35.4962L105.785 37.9097V39.1067H106.357C106.427 39.1067 106.461 39.1371 106.461 39.1978C106.461 39.2281 106.451 39.2802 106.429 39.3539L106.416 39.406Z" fill="#384752"/>
<path d="M109.642 39.1848C109.868 39.1848 110.065 39.1262 110.234 39.0091C110.408 38.892 110.54 38.7272 110.631 38.5147C110.726 38.3022 110.774 38.0572 110.774 37.7796C110.774 37.502 110.726 37.257 110.631 37.0445C110.54 36.832 110.408 36.6672 110.234 36.5501C110.065 36.433 109.868 36.3744 109.642 36.3744C109.417 36.3744 109.217 36.433 109.044 36.5501C108.875 36.6672 108.742 36.832 108.647 37.0445C108.556 37.257 108.51 37.502 108.51 37.7796C108.51 38.0572 108.556 38.3022 108.647 38.5147C108.742 38.7272 108.875 38.892 109.044 39.0091C109.213 39.1262 109.412 39.1848 109.642 39.1848ZM109.642 39.471C109.339 39.471 109.074 39.4016 108.849 39.2628C108.627 39.1197 108.454 38.9224 108.328 38.6708C108.202 38.415 108.139 38.1179 108.139 37.7796C108.139 37.4413 108.202 37.1464 108.328 36.8949C108.454 36.639 108.627 36.4417 108.849 36.3029C109.074 36.1598 109.339 36.0882 109.642 36.0882C109.946 36.0882 110.208 36.1598 110.429 36.3029C110.655 36.4417 110.831 36.639 110.956 36.8949C111.082 37.1464 111.145 37.4413 111.145 37.7796C111.145 38.1179 111.082 38.415 110.956 38.6708C110.831 38.9224 110.655 39.1197 110.429 39.2628C110.208 39.4016 109.946 39.471 109.642 39.471Z" fill="#384752"/>
<path d="M115.743 39.3149L115.099 39.4385C115.026 39.3995 114.965 39.3517 114.917 39.2954L114.963 38.6448C114.841 38.9094 114.674 39.1132 114.462 39.2563C114.254 39.3995 114.015 39.471 113.746 39.471C113.421 39.471 113.169 39.3669 112.992 39.1588C112.814 38.9506 112.725 38.6535 112.725 38.2675V36.459H112.23C112.217 36.4287 112.211 36.3983 112.211 36.3679C112.211 36.3289 112.224 36.2877 112.25 36.2443L112.894 36.1207C112.968 36.1598 113.028 36.2075 113.076 36.2639V38.2675C113.076 38.5581 113.139 38.7836 113.265 38.9441C113.391 39.1045 113.566 39.1848 113.792 39.1848C113.991 39.1848 114.175 39.1262 114.345 39.0091C114.518 38.8877 114.657 38.7294 114.761 38.5342C114.865 38.3347 114.917 38.1179 114.917 37.8837V36.459H114.423C114.41 36.4287 114.403 36.3983 114.403 36.3679C114.403 36.3289 114.416 36.2877 114.442 36.2443L115.086 36.1207C115.16 36.1598 115.221 36.2075 115.268 36.2639V39.1002H115.763C115.776 39.1306 115.782 39.1609 115.782 39.1913C115.782 39.2303 115.769 39.2715 115.743 39.3149Z" fill="#384752"/>
<path d="M118.472 39.406H116.956C116.943 39.3713 116.937 39.3409 116.937 39.3149C116.937 39.2802 116.95 39.239 116.976 39.1913L117.418 39.1392V36.459H116.924C116.911 36.4287 116.904 36.3983 116.904 36.3679C116.904 36.3289 116.917 36.2877 116.943 36.2443L117.587 36.1207C117.661 36.1598 117.722 36.2075 117.769 36.2639L117.685 37.0575C117.802 36.7713 117.965 36.5436 118.173 36.3744C118.381 36.201 118.609 36.1142 118.856 36.1142C118.903 36.1142 118.958 36.1186 119.018 36.1272C119.083 36.1316 119.142 36.1403 119.194 36.1533C119.242 36.2096 119.283 36.2747 119.318 36.3484L119.331 37.0575C119.3 37.0705 119.268 37.077 119.233 37.077C119.19 37.077 119.148 37.064 119.109 37.038L118.966 36.407C118.949 36.4026 118.932 36.4005 118.914 36.4005C118.901 36.4005 118.888 36.4005 118.875 36.4005C118.689 36.4005 118.511 36.4655 118.342 36.5956C118.173 36.7214 118.034 36.8884 117.925 37.0965C117.821 37.3004 117.769 37.5151 117.769 37.7406V39.1262H118.407C118.476 39.1262 118.511 39.1566 118.511 39.2173C118.511 39.2433 118.502 39.2889 118.485 39.3539L118.472 39.406Z" fill="#384752"/>
<path d="M126.632 39.406H125.344C125.326 39.3799 125.317 39.3452 125.317 39.3019C125.317 39.2542 125.333 39.2108 125.363 39.1718L125.786 39.1197L124.472 37.1486L123.678 38.0528V39.1067H124.055C124.125 39.1067 124.16 39.1371 124.16 39.1978C124.16 39.2281 124.149 39.2802 124.127 39.3539L124.114 39.406H122.858C122.841 39.3799 122.832 39.3452 122.832 39.3019C122.832 39.2542 122.848 39.2108 122.878 39.1718L123.314 39.1197V35.5092H122.937C122.867 35.5092 122.832 35.4789 122.832 35.4182C122.832 35.3878 122.843 35.3358 122.865 35.262L122.878 35.21H124.134C124.151 35.236 124.16 35.2707 124.16 35.3141C124.16 35.3618 124.144 35.4051 124.114 35.4442L123.678 35.4962V37.6235L125.506 35.5092H125.161C125.092 35.5092 125.057 35.4789 125.057 35.4182C125.057 35.3878 125.068 35.3358 125.09 35.262L125.103 35.21H126.358C126.376 35.236 126.384 35.2707 126.384 35.3141C126.384 35.3618 126.369 35.4051 126.339 35.4442L125.929 35.4962L124.699 36.8884L126.215 39.1067H126.573C126.642 39.1067 126.677 39.1371 126.677 39.1978C126.677 39.2281 126.666 39.2802 126.645 39.3539L126.632 39.406Z" fill="#384752"/>
<path d="M128.888 37.8772L127.365 38.0203C127.344 37.9639 127.333 37.901 127.333 37.8317C127.333 37.7709 127.339 37.7211 127.352 37.682L128.875 37.5389C128.896 37.5953 128.907 37.6582 128.907 37.7276C128.907 37.7883 128.901 37.8382 128.888 37.8772Z" fill="#384752"/>
<path d="M131.891 39.406H130.246C130.228 39.3799 130.22 39.3452 130.22 39.3019C130.22 39.2542 130.235 39.2108 130.265 39.1718L130.701 39.1197V35.5092H130.324C130.254 35.5092 130.22 35.4789 130.22 35.4182C130.22 35.3878 130.23 35.3358 130.252 35.262L130.265 35.21H133.141C133.201 35.2577 133.253 35.3141 133.297 35.3791L133.31 36.2378C133.284 36.2552 133.249 36.2639 133.206 36.2639C133.158 36.2639 133.114 36.2487 133.075 36.2183L132.913 35.5092H131.065V37.1551H132.301L132.36 36.8103C132.373 36.7322 132.41 36.6932 132.47 36.6932C132.488 36.6932 132.523 36.7041 132.575 36.7257L132.614 36.7453V37.8902C132.588 37.9075 132.553 37.9162 132.509 37.9162C132.462 37.9162 132.418 37.901 132.379 37.8707L132.301 37.4478H131.065V39.1067H131.833C131.902 39.1067 131.937 39.1371 131.937 39.1978C131.937 39.2281 131.926 39.2802 131.904 39.3539L131.891 39.406Z" fill="#384752"/>
<path d="M137.253 39.3149L136.609 39.4385C136.535 39.3995 136.474 39.3517 136.427 39.2954L136.459 38.827C136.32 39.0308 136.149 39.1891 135.945 39.3019C135.746 39.4146 135.525 39.471 135.282 39.471C134.982 39.471 134.74 39.3864 134.553 39.2173C134.371 39.0482 134.28 38.8291 134.28 38.5603C134.28 38.2523 134.401 38.0138 134.644 37.8447C134.891 37.6712 135.238 37.5844 135.685 37.5844C135.785 37.5844 135.9 37.5888 136.03 37.5975C136.16 37.6061 136.296 37.6213 136.44 37.643V37.3828C136.44 36.7149 136.138 36.381 135.535 36.381C135.379 36.381 135.212 36.4091 135.034 36.4655C134.861 36.5176 134.701 36.5935 134.553 36.6932C134.523 36.6672 134.494 36.6303 134.468 36.5826C134.442 36.5306 134.429 36.4872 134.429 36.4525C134.599 36.3354 134.779 36.2465 134.969 36.1858C135.165 36.1207 135.353 36.0882 135.535 36.0882C136.364 36.0882 136.778 36.5197 136.778 37.3828V39.1002H137.272C137.285 39.1306 137.292 39.1609 137.292 39.1913C137.292 39.2303 137.279 39.2715 137.253 39.3149ZM136.44 38.1829V37.9227C136.301 37.9054 136.166 37.8924 136.036 37.8837C135.906 37.8707 135.789 37.8642 135.685 37.8642C135.342 37.8642 135.082 37.9227 134.904 38.0398C134.727 38.1526 134.638 38.3217 134.638 38.5472C134.638 38.7381 134.698 38.892 134.82 39.0091C134.946 39.1262 135.11 39.1848 135.314 39.1848C135.505 39.1848 135.685 39.1371 135.854 39.0417C136.028 38.9462 136.169 38.8226 136.277 38.6708C136.385 38.5191 136.44 38.3564 136.44 38.1829Z" fill="#384752"/>
<path d="M138.479 39.0612L138.466 38.3521C138.496 38.3391 138.529 38.3326 138.563 38.3326C138.607 38.3326 138.648 38.3456 138.687 38.3716L138.823 39.0417C139.036 39.1371 139.281 39.1848 139.559 39.1848C139.827 39.1848 140.04 39.1284 140.196 39.0156C140.352 38.9029 140.43 38.7511 140.43 38.5603C140.43 38.4041 140.37 38.2718 140.248 38.1634C140.131 38.055 139.945 37.9639 139.689 37.8902C139.398 37.8078 139.168 37.7232 138.999 37.6365C138.83 37.5454 138.708 37.4435 138.635 37.3307C138.565 37.2136 138.531 37.0749 138.531 36.9144C138.531 36.6585 138.628 36.4568 138.823 36.3094C139.023 36.1619 139.294 36.0882 139.637 36.0882C139.793 36.0882 139.953 36.1034 140.118 36.1337C140.287 36.1641 140.413 36.2031 140.495 36.2508C140.543 36.3072 140.584 36.3723 140.619 36.446L140.632 37.09C140.597 37.103 140.565 37.1096 140.534 37.1096C140.491 37.1096 140.45 37.0965 140.411 37.0705L140.274 36.472C140.088 36.4026 139.882 36.3679 139.656 36.3679C139.14 36.3679 138.882 36.5501 138.882 36.9144C138.882 37.0141 138.906 37.1009 138.954 37.1746C139.006 37.244 139.094 37.3091 139.22 37.3698C139.346 37.4305 139.52 37.4955 139.741 37.5649C140.105 37.6734 140.37 37.8078 140.534 37.9683C140.703 38.1244 140.788 38.3217 140.788 38.5603C140.788 38.8422 140.68 39.0655 140.463 39.2303C140.246 39.3908 139.945 39.471 139.559 39.471C139.376 39.471 139.199 39.4515 139.025 39.4125C138.856 39.3734 138.715 39.3214 138.602 39.2563C138.555 39.2 138.513 39.1349 138.479 39.0612Z" fill="#384752"/>
<path d="M145.505 39.406H144.249C144.236 39.3713 144.23 39.3409 144.23 39.3149C144.23 39.2802 144.243 39.239 144.269 39.1913L144.711 39.1392V37.2917C144.711 36.6802 144.453 36.3744 143.937 36.3744C143.733 36.3744 143.544 36.4352 143.371 36.5566C143.202 36.6737 143.065 36.832 142.961 37.0315C142.857 37.2267 142.805 37.4413 142.805 37.6755V39.1262H143.182C143.252 39.1262 143.286 39.1566 143.286 39.2173C143.286 39.2433 143.278 39.2889 143.26 39.3539L143.247 39.406H141.992C141.979 39.3713 141.972 39.3409 141.972 39.3149C141.972 39.2802 141.985 39.239 142.011 39.1913L142.454 39.1392V35.3531H141.927C141.914 35.3227 141.907 35.2924 141.907 35.262C141.907 35.223 141.92 35.1818 141.946 35.1384L142.623 35.0148C142.697 35.0539 142.757 35.1016 142.805 35.1579V36.8233C142.913 36.6195 143.065 36.446 143.26 36.3029C143.455 36.1598 143.701 36.0882 143.995 36.0882C144.342 36.0882 144.607 36.1923 144.789 36.4005C144.971 36.6043 145.062 36.9014 145.062 37.2917V39.1262H145.44C145.509 39.1262 145.544 39.1566 145.544 39.2173C145.544 39.2433 145.535 39.2889 145.518 39.3539L145.505 39.406Z" fill="#384752"/>
<path d="M147.972 39.406H146.586C146.573 39.3713 146.566 39.3409 146.566 39.3149C146.566 39.2802 146.579 39.239 146.605 39.1913L147.113 39.1392V36.459H146.586C146.573 36.4287 146.566 36.3983 146.566 36.3679C146.566 36.3289 146.579 36.2877 146.605 36.2443L147.282 36.1207C147.356 36.1598 147.416 36.2075 147.464 36.2639V39.1262H147.907C147.976 39.1262 148.011 39.1566 148.011 39.2173C148.011 39.2433 148.002 39.2889 147.985 39.3539L147.972 39.406ZM147.484 35.2945C147.484 35.377 147.458 35.4442 147.406 35.4962C147.354 35.5439 147.282 35.5678 147.191 35.5678C147.1 35.5678 147.028 35.5439 146.976 35.4962C146.924 35.4442 146.898 35.377 146.898 35.2945C146.898 35.2121 146.924 35.1471 146.976 35.0994C147.028 35.0473 147.1 35.0213 147.191 35.0213C147.282 35.0213 147.354 35.0473 147.406 35.0994C147.458 35.1471 147.484 35.2121 147.484 35.2945Z" fill="#384752"/>
<path d="M150.646 39.1848C150.872 39.1848 151.069 39.1262 151.238 39.0091C151.412 38.892 151.544 38.7272 151.635 38.5147C151.731 38.3022 151.778 38.0572 151.778 37.7796C151.778 37.502 151.731 37.257 151.635 37.0445C151.544 36.832 151.412 36.6672 151.238 36.5501C151.069 36.433 150.872 36.3744 150.646 36.3744C150.421 36.3744 150.221 36.433 150.048 36.5501C149.879 36.6672 149.747 36.832 149.651 37.0445C149.56 37.257 149.515 37.502 149.515 37.7796C149.515 38.0572 149.56 38.3022 149.651 38.5147C149.747 38.7272 149.879 38.892 150.048 39.0091C150.217 39.1262 150.417 39.1848 150.646 39.1848ZM150.646 39.471C150.343 39.471 150.078 39.4016 149.853 39.2628C149.632 39.1197 149.458 38.9224 149.332 38.6708C149.207 38.415 149.144 38.1179 149.144 37.7796C149.144 37.4413 149.207 37.1464 149.332 36.8949C149.458 36.639 149.632 36.4417 149.853 36.3029C150.078 36.1598 150.343 36.0882 150.646 36.0882C150.95 36.0882 151.212 36.1598 151.434 36.3029C151.659 36.4417 151.835 36.639 151.961 36.8949C152.086 37.1464 152.149 37.4413 152.149 37.7796C152.149 38.1179 152.086 38.415 151.961 38.6708C151.835 38.9224 151.659 39.1197 151.434 39.2628C151.212 39.4016 150.95 39.471 150.646 39.471Z" fill="#384752"/>
<path d="M156.878 39.406H155.622C155.609 39.3713 155.603 39.3409 155.603 39.3149C155.603 39.2802 155.616 39.239 155.642 39.1913L156.084 39.1392V37.2917C156.084 36.6802 155.826 36.3744 155.31 36.3744C155.106 36.3744 154.917 36.4352 154.744 36.5566C154.575 36.6737 154.438 36.832 154.334 37.0315C154.23 37.2267 154.178 37.4413 154.178 37.6755V39.1262H154.555C154.625 39.1262 154.659 39.1566 154.659 39.2173C154.659 39.2433 154.651 39.2889 154.633 39.3539L154.62 39.406H153.365C153.352 39.3713 153.345 39.3409 153.345 39.3149C153.345 39.2802 153.358 39.239 153.384 39.1913L153.827 39.1392V36.459H153.332C153.319 36.4287 153.313 36.3983 153.313 36.3679C153.313 36.3289 153.326 36.2877 153.352 36.2443L153.996 36.1207C154.069 36.1598 154.13 36.2075 154.178 36.2639L154.132 36.9144C154.254 36.6498 154.421 36.446 154.633 36.3029C154.846 36.1598 155.091 36.0882 155.368 36.0882C155.715 36.0882 155.98 36.1923 156.162 36.4005C156.344 36.6043 156.435 36.9014 156.435 37.2917V39.1262H156.813C156.882 39.1262 156.917 39.1566 156.917 39.2173C156.917 39.2433 156.908 39.2889 156.891 39.3539L156.878 39.406Z" fill="#384752"/>
<path d="M80.6662 14.1407C80.9752 13.8154 81.3005 13.6528 81.642 13.6528C81.8859 13.6528 82.0892 13.7341 82.2519 13.8967C82.4308 14.0593 82.5202 14.2382 82.5202 14.4334C82.5202 14.5472 82.4796 14.6448 82.3982 14.7261L75.4212 21.4348L82.4714 29.3389C82.6991 29.5991 82.813 29.8349 82.813 30.0463C82.813 30.2903 82.7154 30.5017 82.5202 30.6806C82.3413 30.8595 82.1055 30.949 81.8128 30.949C81.4387 30.949 81.0809 30.8676 80.7394 30.705C80.3978 30.5424 80.0238 30.2252 79.6172 29.7536L73.5428 22.801L73.1037 23.2645V29.3633C73.1037 29.9325 72.9817 30.3391 72.7377 30.583C72.4938 30.827 72.1116 30.949 71.5912 30.949C71.2171 30.949 70.9325 30.8514 70.7373 30.6562C70.5584 30.461 70.469 30.152 70.469 29.7292L70.469 14.8725C70.469 14.4334 70.5503 14.1244 70.7129 13.9455C70.8756 13.7503 71.1521 13.6528 71.5424 13.6528C72.0466 13.6528 72.4287 13.8154 72.689 14.1407C72.9654 14.4497 73.1037 14.9132 73.1037 15.5312V21.63L80.6662 14.1407Z" fill="#384752"/>
<path d="M82.6971 25.704C82.5345 25.704 82.4125 25.6145 82.3312 25.4356C82.2498 25.2405 82.2092 25.0047 82.2092 24.7282C82.2092 24.4517 82.2498 24.224 82.3312 24.0451C82.4125 23.8499 82.5345 23.7524 82.6971 23.7524H89.9425C90.0888 23.7524 90.2027 23.8499 90.284 24.0451C90.3816 24.2403 90.4304 24.468 90.4304 24.7282C90.4304 24.9884 90.3816 25.2161 90.284 25.4112C90.2027 25.6064 90.0888 25.704 89.9425 25.704H82.6971Z" fill="#384752"/>
<path d="M108.5 14.9457C108.663 14.4253 108.858 14.0837 109.086 13.9211C109.314 13.7422 109.574 13.6528 109.866 13.6528C110.078 13.6528 110.249 13.7178 110.379 13.8479C110.525 13.978 110.598 14.1325 110.598 14.3114C110.598 14.5066 110.558 14.7099 110.476 14.9213L106.402 29.9731C106.207 30.6237 105.703 30.949 104.89 30.949C104.565 30.949 104.264 30.8758 103.987 30.7294C103.711 30.583 103.532 30.3635 103.451 30.0707L100.889 18.3366H100.84L98.0104 29.9731C97.9128 30.3147 97.7258 30.5668 97.4493 30.7294C97.1728 30.8758 96.8557 30.949 96.4979 30.949C96.1726 30.949 95.8718 30.8839 95.5953 30.7538C95.3188 30.6074 95.1399 30.3797 95.0586 30.0707L91.1554 15.0921C91.0903 14.9132 91.0578 14.7343 91.0578 14.5554C91.0578 14.2952 91.1391 14.0837 91.3017 13.9211C91.4806 13.7422 91.7408 13.6528 92.0824 13.6528C92.9118 13.6528 93.4648 14.0837 93.7413 14.9457L96.7663 28.1923H96.9126L99.8157 15.1897C99.9458 14.653 100.108 14.2626 100.304 14.0187C100.499 13.7747 100.775 13.6528 101.133 13.6528C101.767 13.6528 102.182 14.1407 102.377 15.1165L105.158 28.1923H105.305L108.5 14.9457Z" fill="#384752"/>
<path d="M118.937 28.6314C118.401 29.4283 117.783 30.0138 117.083 30.3879C116.4 30.7619 115.587 30.949 114.644 30.949C113.44 30.949 112.521 30.6562 111.887 30.0707C111.269 29.469 110.96 28.6639 110.96 27.6556C110.96 26.4196 111.415 25.4031 112.326 24.6062C113.253 23.793 114.847 23.3864 117.108 23.3864H118.889V22.7034C118.889 21.5975 118.693 20.8168 118.303 20.3614C117.929 19.9061 117.311 19.6784 116.449 19.6784C115.636 19.6784 114.92 20.0199 114.302 20.703C113.782 21.2722 113.286 21.5568 112.814 21.5568C112.538 21.5568 112.326 21.4836 112.18 21.3372C112.033 21.1746 111.96 20.9713 111.96 20.7274C111.96 20.4184 112.074 20.1581 112.302 19.9467C112.529 19.7353 112.863 19.5401 113.302 19.3612C113.822 19.1498 114.408 18.9872 115.058 18.8733C115.725 18.7595 116.351 18.7026 116.937 18.7026C118.108 18.7026 119.019 18.8652 119.669 19.1905C120.336 19.5157 120.799 19.9955 121.06 20.6298C121.32 21.2641 121.45 22.0935 121.45 23.1181V29.8024C121.45 30.1927 121.385 30.4854 121.255 30.6806C121.125 30.8595 120.873 30.949 120.499 30.949C119.962 30.949 119.58 30.7701 119.352 30.4123C119.124 30.0382 119.01 29.4527 119.01 28.6558L118.937 28.6314ZM117.498 24.411C114.831 24.411 113.497 25.3787 113.497 27.3141C113.497 28.6477 114.205 29.3145 115.62 29.3145C116.059 29.3145 116.53 29.2088 117.034 28.9973C117.555 28.7696 117.994 28.4444 118.352 28.0215C118.726 27.5824 118.913 27.062 118.913 26.4602V24.411H117.498Z" fill="#384752"/>
<path d="M133.084 19.7516C133.084 20.3858 132.767 20.703 132.133 20.703H131.328C130.108 20.703 129.197 21.0038 128.595 21.6056C128.01 22.2073 127.717 22.9229 127.717 23.7524V29.2169C127.717 29.9162 127.595 30.3797 127.351 30.6074C127.123 30.8351 126.725 30.949 126.156 30.949C125.782 30.949 125.522 30.8595 125.375 30.6806C125.245 30.4854 125.18 30.1927 125.18 29.8024V19.7516C125.18 19.3612 125.261 19.0929 125.424 18.9465C125.587 18.7839 125.855 18.7026 126.229 18.7026C126.684 18.7026 127.034 18.8815 127.278 19.2393C127.538 19.5808 127.668 20.1012 127.668 20.8005V21.4104H127.717C128.189 20.6623 128.725 20.028 129.327 19.5076C129.929 18.9709 130.701 18.7026 131.645 18.7026H131.937C132.344 18.7026 132.629 18.792 132.791 18.9709C132.97 19.1498 133.068 19.41 133.084 19.7516Z" fill="#384752"/>
<path d="M139.641 18.7026C140.438 18.7026 141.178 18.8408 141.861 19.1173V14.409C141.861 13.6934 141.983 13.1811 142.227 12.8721C142.47 12.5631 142.869 12.4086 143.422 12.4086C143.796 12.4086 144.048 12.5062 144.178 12.7013C144.325 12.8802 144.398 13.1649 144.398 13.5552V29.8024C144.398 30.1927 144.333 30.4854 144.203 30.6806C144.072 30.8595 143.82 30.949 143.446 30.949C142.454 30.949 141.958 30.1033 141.958 28.4119L141.885 28.3875C141.413 29.1681 140.877 29.7942 140.275 30.2659C139.673 30.7213 138.917 30.949 138.006 30.949C136.819 30.949 135.827 30.5098 135.03 29.6316C134.233 28.7371 133.835 27.3141 133.835 25.3625C133.835 23.0856 134.339 21.4104 135.347 20.337C136.355 19.2474 137.787 18.7026 139.641 18.7026ZM136.469 25.1673C136.469 26.631 136.697 27.6881 137.152 28.3387C137.624 28.9892 138.234 29.3145 138.982 29.3145C139.421 29.3145 139.868 29.16 140.324 28.851C140.779 28.5257 141.153 28.1272 141.446 27.6556C141.739 27.1677 141.885 26.6879 141.885 26.2163V21.1177C141.885 20.7599 141.682 20.4346 141.275 20.1419C140.869 19.8329 140.324 19.6784 139.641 19.6784C138.6 19.6784 137.811 20.085 137.274 20.8981C136.738 21.695 136.469 23.1181 136.469 25.1673Z" fill="#384752"/>
<path d="M156.217 19.7516C156.217 20.3858 155.899 20.703 155.265 20.703H154.46C153.24 20.703 152.33 21.0038 151.728 21.6056C151.142 22.2073 150.85 22.9229 150.85 23.7524V29.2169C150.85 29.9162 150.728 30.3797 150.484 30.6074C150.256 30.8351 149.858 30.949 149.288 30.949C148.914 30.949 148.654 30.8595 148.508 30.6806C148.378 30.4854 148.313 30.1927 148.313 29.8024V19.7516C148.313 19.3612 148.394 19.0929 148.557 18.9465C148.719 18.7839 148.987 18.7026 149.362 18.7026C149.817 18.7026 150.167 18.8815 150.411 19.2393C150.671 19.5808 150.801 20.1012 150.801 20.8005V21.4104H150.85C151.321 20.6623 151.858 20.028 152.46 19.5076C153.061 18.9709 153.834 18.7026 154.777 18.7026H155.07C155.477 18.7026 155.761 18.792 155.924 18.9709C156.103 19.1498 156.2 19.41 156.217 19.7516Z" fill="#384752"/>
<path d="M162.554 30.949C160.781 30.949 159.407 30.4367 158.431 29.4121C157.455 28.3875 156.967 26.8587 156.967 24.8258C156.967 22.7603 157.463 21.2234 158.455 20.2151C159.447 19.2067 160.813 18.7026 162.554 18.7026C164.294 18.7026 165.66 19.2067 166.652 20.2151C167.644 21.2234 168.14 22.7603 168.14 24.8258C168.14 26.8587 167.652 28.3875 166.676 29.4121C165.701 30.4367 164.326 30.949 162.554 30.949ZM162.554 29.9731C163.513 29.9731 164.245 29.6072 164.749 28.8754C165.253 28.1272 165.505 26.7774 165.505 24.8258C165.505 22.9067 165.245 21.5731 164.725 20.8249C164.204 20.0606 163.481 19.6784 162.554 19.6784C161.643 19.6784 160.919 20.0606 160.382 20.8249C159.862 21.5893 159.602 22.9229 159.602 24.8258C159.602 26.7611 159.854 28.1028 160.358 28.851C160.862 29.5991 161.594 29.9731 162.554 29.9731Z" fill="#384752"/>
<path d="M173.888 20.9469C174.717 19.4507 175.986 18.7026 177.694 18.7026C178.946 18.7026 179.954 19.101 180.719 19.8979C181.483 20.6948 181.865 22.1342 181.865 24.2159C181.865 26.3952 181.353 28.0622 180.328 29.2169C179.304 30.3716 177.881 30.949 176.059 30.949C174.937 30.949 173.888 30.7619 172.912 30.3879C172.408 30.209 172.01 29.965 171.717 29.656C171.44 29.347 171.302 28.8835 171.302 28.2655V13.5552C171.302 13.1649 171.367 12.8802 171.497 12.7013C171.644 12.5062 171.904 12.4086 172.278 12.4086C172.831 12.4086 173.229 12.5631 173.473 12.8721C173.717 13.1811 173.839 13.6934 173.839 14.409V20.9469H173.888ZM173.815 28.6802C173.815 29.038 174.01 29.347 174.4 29.6072C174.807 29.8512 175.36 29.9731 176.059 29.9731C178.173 29.9731 179.231 28.1191 179.231 24.411C179.231 22.8335 179.011 21.7601 178.572 21.1909C178.133 20.6217 177.515 20.337 176.718 20.337C176.311 20.337 175.88 20.4753 175.425 20.7518C174.97 21.012 174.587 21.3535 174.278 21.7764C173.969 22.1992 173.815 22.6383 173.815 23.0937V28.6802Z" fill="#384752"/>
<path d="M193.78 27.8752C193.943 27.6963 194.146 27.6068 194.39 27.6068C194.536 27.6068 194.666 27.6556 194.78 27.7532C194.894 27.8508 194.951 27.9727 194.951 28.1191C194.951 28.4119 194.845 28.6883 194.634 28.9485C193.561 30.2822 192.064 30.949 190.145 30.949C188.242 30.949 186.803 30.4367 185.827 29.4121C184.868 28.3712 184.388 26.94 184.388 25.1185C184.388 23.0368 184.876 21.4511 185.852 20.3614C186.827 19.2555 188.242 18.7026 190.096 18.7026C191.576 18.7026 192.764 19.1254 193.658 19.9711C194.553 20.8168 195 22.0284 195 23.606C195 24.4029 194.536 24.8014 193.609 24.8014H187.047C187.031 24.9315 187.023 25.1104 187.023 25.3381C187.023 26.7367 187.299 27.8426 187.852 28.6558C188.405 29.469 189.259 29.8756 190.414 29.8756C191.194 29.8756 191.812 29.7129 192.268 29.3877C192.723 29.0624 193.073 28.7534 193.317 28.4606C193.561 28.1516 193.715 27.9565 193.78 27.8752ZM189.95 19.6784C189.169 19.6784 188.527 20.0118 188.023 20.6786C187.519 21.3454 187.218 22.3781 187.12 23.7768H191.682C191.975 23.7768 192.186 23.728 192.316 23.6304C192.446 23.5165 192.512 23.3295 192.512 23.0693C192.512 21.9797 192.251 21.1421 191.731 20.5566C191.227 19.9711 190.633 19.6784 189.95 19.6784Z" fill="#384752"/>
<path d="M65.1023 2L65.1023 53.7178" stroke="#384752" stroke-width="3" stroke-linecap="round"/>
</svg>
