<svg width="30" height="30" viewBox="0 0 30 30" fill="none" xmlns="http://www.w3.org/2000/svg">
<path d="M24.3333 25.4352C24.3333 22.9155 22.5107 19.6666 19.6667 19.6667H10.3333C7.48934 19.6666 5.66667 22.9155 5.66667 25.4352M1 15C1 7.26801 7.26801 1 15 1C22.732 1 29 7.26801 29 15C29 22.732 22.732 29 15 29C7.26801 29 1 22.732 1 15ZM19.6667 10.3333C19.6667 12.9107 17.5773 15 15 15C12.4227 15 10.3333 12.9107 10.3333 10.3333C10.3333 7.756 12.4227 5.66667 15 5.66667C17.5773 5.66667 19.6667 7.756 19.6667 10.3333Z" stroke="#384752" stroke-width="1.5"/>
</svg>
